<svg width="64" height="64" viewBox="0 0 64 64" fill="none" xmlns="http://www.w3.org/2000/svg">
  <!-- Background Circle -->
  <circle cx="32" cy="32" r="30" fill="#3B82F6" stroke="#2563EB" stroke-width="2"/>
  
  <!-- JSON Brackets -->
  <path d="M18 20C16.8954 20 16 20.8954 16 22V26C16 27.1046 15.1046 28 14 28C12.8954 28 12 28.8954 12 30V34C12 35.1046 12.8954 36 14 36C15.1046 36 16 36.8954 16 38V42C16 43.1046 16.8954 44 18 44" stroke="white" stroke-width="2.5" stroke-linecap="round"/>
  
  <path d="M46 20C47.1046 20 48 20.8954 48 22V26C48 27.1046 48.8954 28 50 28C51.1046 28 52 28.8954 52 30V34C52 35.1046 51.1046 36 50 36C48.8954 36 48 36.8954 48 38V42C48 43.1046 47.1046 44 46 44" stroke="white" stroke-width="2.5" stroke-linecap="round"/>
  
  <!-- PJP Text -->
  <text x="32" y="36" text-anchor="middle" fill="white" font-family="Arial, sans-serif" font-weight="bold" font-size="12">PJP</text>
  
  <!-- Small decorative dots -->
  <circle cx="26" cy="28" r="1.5" fill="rgba(255,255,255,0.6)"/>
  <circle cx="32" cy="26" r="1" fill="rgba(255,255,255,0.4)"/>
  <circle cx="38" cy="28" r="1.5" fill="rgba(255,255,255,0.6)"/>
</svg>